<svg width="30" height="30" viewBox="0 0 30 30" fill="none" xmlns="http://www.w3.org/2000/svg">
<path d="M25.2544 17.8831C24.5996 17.2043 23.8098 16.8414 22.9727 16.8414C22.1424 16.8414 21.3459 17.1976 20.6641 17.8763L18.5309 19.9933C18.3554 19.8992 18.1799 19.8118 18.0111 19.7245C17.7681 19.6035 17.5386 19.4892 17.3428 19.3683C15.3447 18.1048 13.5288 16.4583 11.7871 14.328C10.9433 13.2661 10.3763 12.3723 9.96451 11.4651C10.5181 10.961 11.0311 10.4368 11.5306 9.9328C11.7196 9.74462 11.9087 9.54973 12.0977 9.36156C13.5153 7.95027 13.5153 6.12231 12.0977 4.71102L10.2548 2.87634C10.0455 2.66801 9.8295 2.45296 9.62699 2.2379C9.22196 1.82124 8.79668 1.39113 8.35789 0.987903C7.7031 0.342742 6.92004 0 6.09648 0C5.27292 0 4.47636 0.342742 3.80131 0.987903C3.79456 0.994624 3.79456 0.994624 3.78781 1.00134L1.49264 3.30645C0.628572 4.16667 0.135785 5.21505 0.0277773 6.43145C-0.134235 8.39382 0.446308 10.2218 0.891841 11.418C1.98542 14.3548 3.61904 17.0766 6.05597 19.9933C9.01269 23.5081 12.5702 26.2836 16.634 28.2392C18.1866 28.9718 20.259 29.8387 22.5744 29.9866C22.7162 29.9933 22.8647 30 22.9997 30C24.5591 30 25.8687 29.4422 26.8948 28.3333C26.9015 28.3199 26.915 28.3132 26.9218 28.2997C27.2728 27.8763 27.6778 27.4933 28.1031 27.0833C28.3934 26.8078 28.6904 26.5188 28.9807 26.2164C29.649 25.5242 30 24.7177 30 23.8911C30 23.0578 29.6422 22.2581 28.9604 21.586L25.2544 17.8831ZM27.6711 24.9597C27.6643 24.9597 27.6643 24.9664 27.6711 24.9597C27.4078 25.2419 27.1378 25.4973 26.8475 25.7796C26.4087 26.1962 25.9632 26.6331 25.5447 27.1237C24.8629 27.8495 24.0596 28.1922 23.0065 28.1922C22.9052 28.1922 22.7972 28.1922 22.696 28.1855C20.6911 28.0578 18.8279 27.2782 17.4306 26.6129C13.6098 24.7715 10.2548 22.1573 7.46683 18.8441C5.16491 16.082 3.62579 13.5282 2.60647 10.7863C1.97867 9.1129 1.74915 7.80914 1.85041 6.5793C1.91792 5.79301 2.22169 5.14113 2.78198 4.58333L5.0839 2.29167C5.41468 1.98253 5.7657 1.81452 6.10998 1.81452C6.53526 1.81452 6.87954 2.06989 7.09555 2.28495C7.1023 2.29167 7.10905 2.29839 7.1158 2.30511C7.52758 2.68817 7.91911 3.08468 8.33089 3.50806C8.54016 3.72312 8.75617 3.93817 8.97219 4.15995L10.8151 5.99462C11.5306 6.70699 11.5306 7.36559 10.8151 8.07796C10.6193 8.27285 10.4303 8.46774 10.2345 8.65591C9.66749 9.23387 9.12745 9.77151 8.54016 10.2957C8.52666 10.3091 8.51316 10.3159 8.50641 10.3293C7.92586 10.9073 8.03387 11.4718 8.15538 11.8548C8.16213 11.875 8.16888 11.8952 8.17563 11.9153C8.65492 13.0712 9.32997 14.1599 10.356 15.457L10.3628 15.4637C12.2259 17.7487 14.1903 19.5296 16.3572 20.8938C16.634 21.0685 16.9175 21.2097 17.1875 21.3441C17.4306 21.4651 17.6601 21.5793 17.8558 21.7003C17.8828 21.7137 17.9099 21.7339 17.9369 21.7473C18.1664 21.8616 18.3824 21.9153 18.6052 21.9153C19.1654 21.9153 19.5165 21.5659 19.6312 21.4516L21.9399 19.1532C22.1694 18.9247 22.5339 18.6492 22.9592 18.6492C23.3778 18.6492 23.722 18.9113 23.9313 19.1398C23.938 19.1465 23.938 19.1465 23.9448 19.1532L27.6643 22.8562C28.3596 23.5417 28.3596 24.2473 27.6711 24.9597Z" fill="white"/>
</svg>
